<?xml version="1.0" encoding="UTF-8" standalone="no"?>
<!DOCTYPE svg PUBLIC "-//W3C//DTD SVG 1.1//EN"
 "http://www.w3.org/Graphics/SVG/1.1/DTD/svg11.dtd">
<!-- Generated by graphviz version 6.0.1 (20220911.2005)
 -->
<!-- Title: snakemake_dag Pages: 1 -->
<svg width="377pt" height="188pt"
 viewBox="0.00 0.00 376.50 188.00" xmlns="http://www.w3.org/2000/svg" xmlns:xlink="http://www.w3.org/1999/xlink">
<g id="graph0" class="graph" transform="scale(1 1) rotate(0) translate(4 184)">
<title>snakemake_dag</title>
<polygon fill="white" stroke="none" points="-4,4 -4,-184 372.5,-184 372.5,4 -4,4"/>
<!-- 0 -->
<g id="node1" class="node">
<title>0</title>
<path fill="none" stroke="#88d856" stroke-width="2" stroke-dasharray="5,2" d="M147.5,-36C147.5,-36 117.5,-36 117.5,-36 111.5,-36 105.5,-30 105.5,-24 105.5,-24 105.5,-12 105.5,-12 105.5,-6 111.5,0 117.5,0 117.5,0 147.5,0 147.5,0 153.5,0 159.5,-6 159.5,-12 159.5,-12 159.5,-24 159.5,-24 159.5,-30 153.5,-36 147.5,-36"/>
<text text-anchor="middle" x="132.5" y="-15.5" font-family="sans" font-size="10.00">targets</text>
</g>
<!-- 1 -->
<g id="node2" class="node">
<title>1</title>
<path fill="none" stroke="#56d88a" stroke-width="2" stroke-dasharray="5,2" d="M79,-180C79,-180 12,-180 12,-180 6,-180 0,-174 0,-168 0,-168 0,-156 0,-156 0,-150 6,-144 12,-144 12,-144 79,-144 79,-144 85,-144 91,-150 91,-156 91,-156 91,-168 91,-168 91,-174 85,-180 79,-180"/>
<text text-anchor="middle" x="45.5" y="-159.5" font-family="sans" font-size="10.00">get_all_archive</text>
</g>
<!-- 1&#45;&gt;0 -->
<g id="edge1" class="edge">
<title>1&#45;&gt;0</title>
<path fill="none" stroke="grey" stroke-width="2" d="M35.93,-143.98C26.68,-125.06 15.93,-94.25 29.5,-72 43.8,-48.57 72.13,-35.05 95.47,-27.55"/>
<polygon fill="grey" stroke="grey" stroke-width="2" points="96.52,-30.88 105.11,-24.68 94.53,-24.17 96.52,-30.88"/>
</g>
<!-- 2 -->
<g id="node3" class="node">
<title>2</title>
<path fill="none" stroke="#d8bc56" stroke-width="2" stroke-dasharray="5,2" d="M112,-108C112,-108 51,-108 51,-108 45,-108 39,-102 39,-96 39,-96 39,-84 39,-84 39,-78 45,-72 51,-72 51,-72 112,-72 112,-72 118,-72 124,-78 124,-84 124,-84 124,-96 124,-96 124,-102 118,-108 112,-108"/>
<text text-anchor="middle" x="81.5" y="-87.5" font-family="sans" font-size="10.00">list_filenames</text>
</g>
<!-- 1&#45;&gt;2 -->
<g id="edge5" class="edge">
<title>1&#45;&gt;2</title>
<path fill="none" stroke="grey" stroke-width="2" d="M54.4,-143.7C58.5,-135.73 63.45,-126.1 67.99,-117.26"/>
<polygon fill="grey" stroke="grey" stroke-width="2" points="71.24,-118.6 72.7,-108.1 65.02,-115.4 71.24,-118.6"/>
</g>
<!-- 2&#45;&gt;0 -->
<g id="edge2" class="edge">
<title>2&#45;&gt;0</title>
<path fill="none" stroke="grey" stroke-width="2" d="M94.11,-71.7C100.1,-63.47 107.38,-53.48 113.98,-44.42"/>
<polygon fill="grey" stroke="grey" stroke-width="2" points="116.98,-46.25 120.04,-36.1 111.32,-42.13 116.98,-46.25"/>
</g>
<!-- 3 -->
<g id="node4" class="node">
<title>3</title>
<path fill="none" stroke="#d85656" stroke-width="2" stroke-dasharray="5,2" d="M214.5,-108C214.5,-108 154.5,-108 154.5,-108 148.5,-108 142.5,-102 142.5,-96 142.5,-96 142.5,-84 142.5,-84 142.5,-78 148.5,-72 154.5,-72 154.5,-72 214.5,-72 214.5,-72 220.5,-72 226.5,-78 226.5,-84 226.5,-84 226.5,-96 226.5,-96 226.5,-102 220.5,-108 214.5,-108"/>
<text text-anchor="middle" x="184.5" y="-87.5" font-family="sans" font-size="10.00">get_inventory</text>
</g>
<!-- 3&#45;&gt;0 -->
<g id="edge3" class="edge">
<title>3&#45;&gt;0</title>
<path fill="none" stroke="grey" stroke-width="2" d="M171.65,-71.7C165.47,-63.39 157.96,-53.28 151.18,-44.14"/>
<polygon fill="grey" stroke="grey" stroke-width="2" points="153.98,-42.04 145.21,-36.1 148.36,-46.22 153.98,-42.04"/>
</g>
<!-- 4 -->
<g id="node5" class="node">
<title>4</title>
<path fill="none" stroke="#56c1d8" stroke-width="2" stroke-dasharray="5,2" d="M356.5,-108C356.5,-108 256.5,-108 256.5,-108 250.5,-108 244.5,-102 244.5,-96 244.5,-96 244.5,-84 244.5,-84 244.5,-78 250.5,-72 256.5,-72 256.5,-72 356.5,-72 356.5,-72 362.5,-72 368.5,-78 368.5,-84 368.5,-84 368.5,-96 368.5,-96 368.5,-102 362.5,-108 356.5,-108"/>
<text text-anchor="middle" x="306.5" y="-87.5" font-family="sans" font-size="10.00">get_station_metadata</text>
</g>
<!-- 4&#45;&gt;0 -->
<g id="edge4" class="edge">
<title>4&#45;&gt;0</title>
<path fill="none" stroke="grey" stroke-width="2" d="M263.93,-71.88C234.87,-60.18 196.75,-44.85 169.05,-33.7"/>
<polygon fill="grey" stroke="grey" stroke-width="2" points="170.31,-30.44 159.72,-29.95 167.69,-36.93 170.31,-30.44"/>
</g>
</g>
</svg>
